<?xml version="1.0" encoding="utf-8"?>
<svg xmlns="http://www.w3.org/2000/svg" viewBox="1182.6 121.549 814.1 999.9009" width="814.1px" height="909.001px">
  <path d="M 1970.7 462.449 C 1964.9 466.949 1862.5 524.649 1862.5 652.949 C 1862.5 801.349 1992.8 853.849 1996.7 855.149 C 1996.1 858.349 1976 927.049 1928 997.049 C 1885.2 1058.65 1840.5 1120.15 1772.5 1120.15 C 1704.5 1120.15 1687 1080.65 1608.5 1080.65 C 1532 1080.65 1504.8 1121.45 1442.6 1121.45 C 1380.4 1121.45 1337 1064.45 1287.1 994.449 C 1229.3 912.249 1182.6 784.549 1182.6 663.349 C 1182.6 468.949 1309 365.849 1433.4 365.849 C 1499.5 365.849 1554.6 409.249 1596.1 409.249 C 1635.6 409.249 1697.2 363.249 1772.4 363.249 C 1800.9 363.249 1903.3 365.849 1970.7 462.449 L 1970.7 462.449 Z M 1736.7 280.949 C 1767.8 244.049 1789.8 192.849 1789.8 141.649 C 1789.8 134.549 1789.2 127.349 1787.9 121.549 C 1737.3 123.449 1677.1 155.249 1640.8 197.349 C 1612.3 229.749 1585.7 280.949 1585.7 332.849 C 1585.7 340.649 1587 348.449 1587.6 350.949 C 1590.8 351.549 1596 352.249 1601.2 352.249 C 1646.6 352.249 1703.7 321.849 1736.7 280.949 Z"
        transform="matrix(1, 0, 0, 1, 5.684341886080802e-14, 0)"/>
</svg>