<?xml version="1.0" encoding="utf-8"?>
<svg xmlns="http://www.w3.org/2000/svg" viewBox="251.4356 74.013 29.0002 24" width="24.7356px" height="20.5714px">
    <path d="M 277.811 74.984 C 279.799 75.52 280.893 77.9 280.253 80.301 C 280.017 81.188 279.577 81.954 279.016 82.54 C 279.237 83.278 279.391 84.046 279.468 84.837 C 279.525 85.423 279.525 86.12 279.525 87.513 L 279.525 88.782 C 279.525 90.39 279.525 91.194 279.403 91.865 C 278.845 94.93 276.462 97.328 273.416 97.89 C 272.75 98.013 271.951 98.013 270.353 98.013 L 261.869 98.013 C 260.271 98.013 259.472 98.013 258.806 97.89 C 255.76 97.328 253.377 94.93 252.819 91.865 C 252.697 91.194 252.697 90.39 252.697 88.782 L 252.697 87.513 C 252.697 86.12 252.697 85.423 252.754 84.837 C 252.822 84.14 252.949 83.46 253.13 82.803 C 252.438 82.193 251.892 81.328 251.618 80.301 C 250.979 77.9 252.073 75.519 254.06 74.983 C 255.364 74.631 256.729 75.161 257.694 76.245 C 259.347 75.057 261.315 74.283 263.452 74.071 C 264.035 74.013 264.727 74.013 266.111 74.013 C 267.495 74.013 268.187 74.013 268.77 74.071 C 270.816 74.274 272.708 74.992 274.316 76.096 C 275.271 75.114 276.569 74.649 277.811 74.984 Z M 259.404 86.049 C 259.404 86.858 260.055 87.513 260.858 87.513 L 262.421 87.513 C 263.224 87.513 263.875 86.858 263.875 86.049 L 263.875 82.263 C 263.875 81.02 262.874 80.013 261.64 80.013 C 260.405 80.013 259.404 81.02 259.404 82.263 L 259.404 86.049 Z M 268.347 86.049 C 268.347 86.858 268.998 87.513 269.801 87.513 L 271.364 87.513 C 272.167 87.513 272.818 86.858 272.818 86.049 L 272.818 82.263 C 272.818 81.02 271.817 80.013 270.582 80.013 C 269.348 80.013 268.347 81.02 268.347 82.263 L 268.347 86.049 Z"
          fill="#000" />
</svg>