<svg width="29" height="24" viewBox="0 0 29 24" fill="none" xmlns="http://www.w3.org/2000/svg">
<path d="M1.26091 13.5C1.26091 12.107 1.26091 11.4105 1.31833 10.8238C1.8759 5.12647 6.35478 0.618921 12.0159 0.0577833C12.5988 0 13.2909 0 14.6751 0C16.0592 0 16.7513 0 17.3343 0.0577833C22.9953 0.618921 27.4742 5.12647 28.0318 10.8238C28.0892 11.4105 28.0892 12.107 28.0892 13.5V14.7692C28.0892 16.3774 28.0892 17.1815 27.9671 17.8519C27.409 20.917 25.0258 23.3155 21.9802 23.8771C21.3141 24 20.5151 24 18.9171 24H10.433C8.835 24 8.03601 24 7.3699 23.8771C4.32431 23.3155 1.94111 20.917 1.38298 17.8519C1.26091 17.1815 1.26091 16.3774 1.26091 14.7692V13.5Z" fill="#181818"/>
<path d="M4.93897 9.6639C2.95119 10.1999 0.821646 8.68841 0.182498 6.28781C-0.45665 3.88721 0.63663 1.5066 2.62441 0.970572C4.61218 0.43454 6.74173 1.94607 7.38087 4.34667C8.02002 6.74726 6.92674 9.12787 4.93897 9.6639Z" fill="#181818"/>
<path d="M26.3756 0.970721C28.3634 1.50675 29.4567 3.88736 28.8175 6.28796C28.1784 8.68856 26.0488 10.2001 24.061 9.66405C22.0733 9.12802 20.98 6.74741 21.6191 4.34682C22.2583 1.94622 24.3878 0.434689 26.3756 0.970721Z" fill="#181818"/>
<path d="M7.96799 8.25C7.96799 7.00736 8.96894 6 10.2037 6C11.4384 6 12.4394 7.00736 12.4394 8.25V12.0366C12.4394 12.8448 11.7883 13.5 10.9853 13.5H9.4221C8.61901 13.5 7.96799 12.8448 7.96799 12.0366V8.25Z" fill="white"/>
<path d="M16.9108 8.25C16.9108 7.00736 17.9117 6 19.1464 6C20.3812 6 21.3821 7.00736 21.3821 8.25V12.0366C21.3821 12.8448 20.7311 13.5 19.928 13.5H18.3649C17.5618 13.5 16.9108 12.8448 16.9108 12.0366V8.25Z" fill="white"/>
</svg>
