<svg xmlns="http://www.w3.org/2000/svg" viewBox="0 0 309.07 79.09"><title>cibc logo</title><path d="M403.76,530.71a16.82,16.82,0,0,1-10.9,3.53c-11.22,0-18.67-8.59-18.67-22.24,0-13.87,7.38-22.35,18.67-22.35a17.06,17.06,0,0,1,10.32,3.08l8.38-11.37c-5.21-3.48-10.33-5.63-20.24-5.63-21.56,0-33.85,14.55-33.85,36.27,0,22.27,12.86,36.16,33.85,36.16,13.4,0,18.6-4.59,21-6.22Z" transform="translate(-357.46 -472.46)" style="fill:#c41f3e"/><path d="M555.79,530.6a17.3,17.3,0,0,1-11.06,3.68C533.5,534.28,526,525.69,526,512c0-13.87,7.44-22.35,18.67-22.35A17.08,17.08,0,0,1,555,492.78l8.39-11.37c-5.21-3.48-10.33-5.63-20.24-5.63-21.52,0-33.86,14.55-33.86,36.27,0,22.27,12.86,36.16,33.86,36.16,13.4,0,18.6-4.59,21-6.22Z" transform="translate(-357.46 -472.46)" style="fill:#c41f3e"/><path d="M475.81,477c15.45,0,23.61,6.19,23.61,17.91,0,8.47-5.52,12.83-10.83,15l0,.15c6.22,1.77,13.52,5.8,13.52,16.9,0,12.88-9.53,20-26.81,20H450.68V477Zm-2.09,39.56h-6.78v18.1h7c7,0,11.73-2.76,11.73-8.84C485.64,519.39,481,516.57,473.72,516.57Zm0-27.93h-6.78v16.23h6.37c6.15,0,10.59-2.45,10.59-8C483.88,493.09,481.6,488.64,473.72,488.64Z" transform="translate(-357.46 -472.46)" style="fill:#c41f3e"/><polygon points="62.04 74.47 78.23 74.47 78.23 4.56 62.04 4.56 62.04 74.47" style="fill:#c41f3e"/><path d="M639.63,475.49a7.38,7.38,0,0,0-6.27-3H607.29a7.38,7.38,0,0,1,6.33,3.12c2.63,3.5,26.86,36.42,26.86,36.42s-24.23,32.92-26.86,36.43a7.38,7.38,0,0,1-6.33,3.1h26.06a7.38,7.38,0,0,0,6.27-3L666.54,512Z" transform="translate(-357.46 -472.46)" style="fill:#c41f3e"/><path d="M620.33,484.62h0c-3.31-4.46-5.91-8-6.7-9A8,8,0,0,0,601,475.5L574.1,512,601,548.51a8,8,0,0,0,12.61-.09l6.7-9.05L600.15,512Z" transform="translate(-357.46 -472.46)" style="fill:#8b1d41"/></svg>