<svg fill="none" height="40" viewBox="5 5 30 30" width="40" xmlns="http://www.w3.org/2000/svg" >
    <path clip-rule="evenodd"
          d="M20.8107 19.0432H33.3399C33.4819 19.0432 33.5969 18.9281 33.5969 18.7862V18.4019C33.5969 18.2847 33.5176 18.1825 33.404 18.153C27.5285 16.6434 22.9181 12.0599 21.3712 6.19175C21.3413 6.07891 21.2392 6 21.1227 6H20.8107C20.6688 6 20.5537 6.11505 20.5537 6.25701V18.7862C20.5537 18.9281 20.6688 19.0432 20.8107 19.0432Z"
          fill="#131313" fill-rule="evenodd" ></path>
    <path clip-rule="evenodd"
          d="M20.8107 33.5811H21.195C21.3122 33.5811 21.4147 33.5019 21.4439 33.3883C22.9535 27.5131 27.537 22.9023 33.4055 21.3555C33.5184 21.3256 33.5969 21.2235 33.5969 21.1069V20.795C33.5969 20.6534 33.4819 20.5383 33.3399 20.5383H20.8107C20.6688 20.5383 20.5537 20.6534 20.5537 20.795V33.3241C20.5537 33.4661 20.6688 33.5811 20.8107 33.5811Z"
          fill="#131313" fill-rule="evenodd" ></path>
    <path clip-rule="evenodd"
          d="M18.4742 33.5815H18.7858C18.9278 33.5815 19.0428 33.4665 19.0428 33.3241V20.7953C19.0428 20.6534 18.9278 20.5383 18.7858 20.5383H6.25701C6.11505 20.5383 6 20.6534 6 20.7953V21.1792C6 21.2968 6.07928 21.399 6.19285 21.4285C12.068 22.9381 16.6788 27.5212 18.2257 33.3898C18.2556 33.5026 18.3573 33.5815 18.4742 33.5815Z"
          fill="#131313" fill-rule="evenodd" ></path>
    <path clip-rule="evenodd"
          d="M6.25701 19.0432H18.7858C18.9278 19.0432 19.0428 18.9281 19.0428 18.7862V6.25701C19.0428 6.11505 18.9278 6 18.7858 6H18.4019C18.2847 6 18.1822 6.07965 18.153 6.19322C16.643 12.0684 12.0599 16.6792 6.19138 18.2261C6.07854 18.2556 6 18.3577 6 18.4746V18.7862C6 18.9281 6.11505 19.0432 6.25701 19.0432Z"
          fill="#131313" fill-rule="evenodd" ></path>
</svg>