<?xml version="1.0" encoding="utf-8"?>
<svg xmlns="http://www.w3.org/2000/svg" viewBox="0 0 83 83.001" width="83px" height="83.001px">
    <path fill="#000000"
          d="M78.78 41.5c0-20.589-16.691-37.28-37.28-37.28-20.589 0-37.28 16.691-37.28 37.28 0 20.589 16.691 37.28 37.28 37.28V83C18.58 83 0 64.42 0 41.5S18.58 0 41.5 0 83 18.58 83 41.5 64.42 83 41.5 83v-4.22c20.589 0 37.28-16.691 37.28-37.28Z"
          transform="matrix(1, 0, 0, 1, 0, 1.4210854715202004e-14)"/>
    <path fill="#000000"
          d="M66.66 53.458V29.542C66.66 15.557 55.396 4.22 41.5 4.22S16.34 15.557 16.34 29.542v23.916c0 13.985 11.264 25.322 25.16 25.322V83c-15.958 0-28.942-12.817-29.344-28.78l-.01-.762V29.542C12.146 13.227 25.288 0 41.5 0s29.354 13.227 29.354 29.542v23.916C70.854 69.773 57.712 83 41.5 83v-4.22c13.896 0 25.16-11.337 25.16-25.322Z"
          transform="matrix(1, 0, 0, 1, 0, 1.4210854715202004e-14)"/>
    <path fill="#000000"
          d="M66.758 52.754V30.246C66.758 15.872 55.45 4.22 41.5 4.22S16.242 15.872 16.242 30.246v22.508c0 14.374 11.308 26.026 25.258 26.026V83c-16.212 0-29.354-13.541-29.354-30.246V30.246C12.146 13.542 25.288 0 41.5 0s29.354 13.541 29.354 30.246v22.508C70.854 69.46 57.712 83 41.5 83v-4.22c13.95 0 25.258-11.652 25.258-26.026Z"
          transform="matrix(1, 0, 0, 1, 0, 1.4210854715202004e-14)"/>
    <path fill="#000000"
          d="M 54.658 66.119 L 54.658 16.88 C 54.658 9.888 49.22 4.22 42.512 4.22 C 35.804 4.22 30.366 9.888 30.366 16.88 L 30.366 66.12 C 30.366 73.112 35.804 78.78 42.512 78.78 L 42.512 83 C 33.568 83 26.317 75.442 26.317 66.119 L 26.317 16.88 C 26.317 7.558 33.567 0 42.512 0 C 51.456 0 58.707 7.558 58.707 16.881 L 58.707 66.12 C 58.707 75.443 51.457 83.001 42.512 83.001 L 42.512 78.781 C 49.22 78.781 54.658 73.112 54.658 66.12 L 54.658 66.119 Z"
          transform="matrix(1, 0, 0, 1, 0, 1.4210854715202004e-14)"/>
</svg>