<svg width="156" height="32" viewBox="0 0 156 32" fill="none" xmlns="http://www.w3.org/2000/svg">
<g clip-path="url(#clip0_6029_287)">
<path fill-rule="evenodd" clip-rule="evenodd" d="M11.0779 1.83247L11.0686 1.83116C10.872 1.80344 10.6111 1.8 10.1828 1.8C9.4392 1.8 8.68609 1.91452 7.91801 2.15202C5.53105 2.95668 3.55913 5.0594 2.50506 8.34963C1.49643 11.5549 1.5623 15.4146 2.75247 19.212C4.74922 25.4378 9.26094 29.6437 13.5631 30.1643L13.5672 30.1648C13.836 30.1979 14.1234 30.2 14.4839 30.2C15.2275 30.2 15.9806 30.0855 16.7487 29.848C19.157 29.0364 21.1574 26.967 22.1544 23.6736L22.1573 23.6639L22.1604 23.6543C23.1703 20.4482 23.1048 16.587 21.9142 12.788C19.9217 6.57563 15.4118 2.39725 11.0872 1.83369L11.0779 1.83247ZM23.63 12.2439C24.9154 16.3415 25.0143 20.5854 23.8772 24.1951C22.7401 27.9512 20.3671 30.5366 17.3019 31.561C16.3626 31.8537 15.4232 32 14.4839 32C14.1378 32 13.7423 32 13.3468 31.9512C8.10635 31.3171 3.16251 26.3902 1.03666 19.7561C-0.248739 15.6585 -0.347616 11.4146 0.789467 7.80488C1.97599 4.09756 4.29959 1.46341 7.36477 0.439024C8.3041 0.146341 9.24343 0 10.1828 0C10.5783 0 10.9738 0 11.3198 0.0487805C16.5603 0.731707 21.5042 5.60976 23.63 12.2439Z" fill="black"></path>
<path d="M9.97778 15.1096C10.9061 15.1096 11.6587 14.367 11.6587 13.451C11.6587 12.535 10.9061 11.7925 9.97778 11.7925C9.04944 11.7925 8.29688 12.535 8.29688 13.451C8.29688 14.367 9.04944 15.1096 9.97778 15.1096Z" fill="black"></path>
<path d="M18.0894 21.1098L12.75 7.5L21.1051 19.939L18.0894 21.1098Z" fill="black"></path>
<path d="M61.184 15.7931V24.6582H57.8038V16.2234C57.8038 13.9856 56.6474 12.6946 54.6015 12.6946C52.7335 12.6946 51.4882 13.9856 51.3103 15.707V24.6582H48.0191V16.2234C48.0191 13.9856 46.7738 12.6946 44.9947 12.6946C42.8599 12.6946 41.5256 14.2438 41.5256 16.2234V24.5721H38.2344V9.9404H41.3477V11.92C42.1483 10.6289 43.4825 9.68219 45.7063 9.68219C47.8412 9.68219 49.5313 10.6289 50.5097 12.3503C51.3993 10.8011 53.0893 9.68219 55.4021 9.68219C58.8712 9.76826 61.184 12.1782 61.184 15.7931Z" fill="black"></path>
<path d="M64.3831 31.8884L68.119 23.5397L62.0703 10.0269H65.8063L69.8981 20.0108L73.9899 10.0269H77.6369L67.9411 31.8884H64.3831Z" fill="black"></path>
<path d="M102.171 15.793V24.6581H98.791V16.2234C98.791 13.9856 97.635 12.6945 95.589 12.6945C93.7209 12.6945 92.4756 13.9856 92.2977 15.707V24.6581H88.9175V16.2234C88.9175 13.9856 87.6722 12.6945 85.8932 12.6945C83.7583 12.6945 82.424 14.2438 82.424 16.2234V24.572H79.1328V9.94034H82.2461V11.9199C83.0467 10.6289 84.381 9.68213 86.6048 9.68213C88.7396 9.68213 90.4297 10.6289 91.4082 12.3503C92.2977 10.801 93.9878 9.68213 96.301 9.68213C99.859 9.7682 102.171 12.1781 102.171 15.793Z" fill="black"></path>
<path d="M109.024 4.94889C109.024 6.06779 108.046 6.92848 106.89 6.92848C105.733 6.92848 104.844 6.06779 104.844 4.94889C104.844 3.83 105.822 2.96931 106.89 2.96931C108.135 2.88324 109.024 3.83 109.024 4.94889ZM105.289 24.6587V10.027H108.58V24.6587H105.289Z" fill="black"></path>
<path d="M125.393 15.793V24.6581H122.012V16.2234C122.012 13.9856 120.678 12.6945 118.721 12.6945C116.586 12.6945 115.252 14.2438 115.252 16.2234V24.572H111.961V9.94034H115.074V11.9199C115.875 10.6289 117.298 9.68213 119.522 9.68213C122.902 9.7682 125.393 12.006 125.393 15.793Z" fill="black"></path>
<path d="M139.885 24.6584V22.5928C139.084 23.9699 137.216 24.9166 134.903 24.9166C130.723 24.9166 127.609 21.9903 127.609 17.3426C127.609 12.6948 130.723 9.76849 134.903 9.76849C137.216 9.76849 138.906 10.6292 139.707 11.8341V2.45264H142.998V24.6584H139.885ZM130.99 17.3426C130.99 20.441 132.858 22.1624 135.437 22.1624C137.928 22.1624 139.707 20.6132 139.707 17.6868V16.9122C139.707 13.9859 137.928 12.4366 135.437 12.4366C132.858 12.4366 130.99 14.2441 130.99 17.3426Z" fill="black"></path>
<path d="M149.248 9.70264V5.09014H151.585C151.773 5.09014 151.977 5.1443 152.198 5.25264C152.419 5.3568 152.606 5.5193 152.76 5.74014C152.919 5.9568 152.998 6.2318 152.998 6.56514C152.998 6.90264 152.917 7.19014 152.754 7.42764C152.592 7.66097 152.394 7.83805 152.16 7.95889C151.931 8.07972 151.715 8.14014 151.51 8.14014H149.823V7.39014H151.198C151.335 7.39014 151.483 7.32139 151.642 7.18389C151.804 7.04639 151.885 6.84014 151.885 6.56514C151.885 6.2818 151.804 6.09014 151.642 5.99014C151.483 5.89014 151.344 5.84014 151.223 5.84014H150.26V9.70264H149.248ZM152.035 7.52764L153.185 9.70264H152.073L150.948 7.52764H152.035ZM150.998 12.4526C150.306 12.4526 149.658 12.3235 149.054 12.0651C148.45 11.8068 147.919 11.4485 147.46 10.9901C147.002 10.5318 146.644 10.0006 146.385 9.39639C146.127 8.79222 145.998 8.1443 145.998 7.45264C145.998 6.76097 146.127 6.11305 146.385 5.50889C146.644 4.90472 147.002 4.37347 147.46 3.91514C147.919 3.4568 148.45 3.09847 149.054 2.84014C149.658 2.5818 150.306 2.45264 150.998 2.45264C151.69 2.45264 152.338 2.5818 152.942 2.84014C153.546 3.09847 154.077 3.4568 154.535 3.91514C154.994 4.37347 155.352 4.90472 155.61 5.50889C155.869 6.11305 155.998 6.76097 155.998 7.45264C155.998 8.1443 155.869 8.79222 155.61 9.39639C155.352 10.0006 154.994 10.5318 154.535 10.9901C154.077 11.4485 153.546 11.8068 152.942 12.0651C152.338 12.3235 151.69 12.4526 150.998 12.4526ZM150.998 11.2526C151.698 11.2526 152.335 11.0818 152.91 10.7401C153.485 10.3985 153.944 9.94014 154.285 9.36514C154.627 8.79014 154.798 8.15264 154.798 7.45264C154.798 6.75264 154.627 6.11514 154.285 5.54014C153.944 4.96514 153.485 4.5068 152.91 4.16514C152.335 3.82347 151.698 3.65264 150.998 3.65264C150.298 3.65264 149.66 3.82347 149.085 4.16514C148.51 4.5068 148.052 4.96514 147.71 5.54014C147.369 6.11514 147.198 6.75264 147.198 7.45264C147.198 8.15264 147.369 8.79014 147.71 9.36514C148.052 9.94014 148.51 10.3985 149.085 10.7401C149.66 11.0818 150.298 11.2526 150.998 11.2526Z" fill="black"></path>
</g>
<defs>
<clipPath id="clip0_6029_287">
<rect width="156" height="32" fill="white"></rect>
</clipPath>
</defs>
</svg>