<?xml version="1.0" encoding="utf-8"?>
<svg xmlns="http://www.w3.org/2000/svg" viewBox="258.8382 85.8482 24.6667 32" width="24.6667px" height="32px">
    <g clip-path="url(#clip0_6029_287)" transform="matrix(1, 0, 0, 1, 258.83819580078125, 85.84819793701172)">
        <path
              d="M11.0779 1.83247L11.0686 1.83116C10.872 1.80344 10.6111 1.8 10.1828 1.8C9.4392 1.8 8.68609 1.91452 7.91801 2.15202C5.53105 2.95668 3.55913 5.0594 2.50506 8.34963C1.49643 11.5549 1.5623 15.4146 2.75247 19.212C4.74922 25.4378 9.26094 29.6437 13.5631 30.1643L13.5672 30.1648C13.836 30.1979 14.1234 30.2 14.4839 30.2C15.2275 30.2 15.9806 30.0855 16.7487 29.848C19.157 29.0364 21.1574 26.967 22.1544 23.6736L22.1573 23.6639L22.1604 23.6543C23.1703 20.4482 23.1048 16.587 21.9142 12.788C19.9217 6.57563 15.4118 2.39725 11.0872 1.83369L11.0779 1.83247ZM23.63 12.2439C24.9154 16.3415 25.0143 20.5854 23.8772 24.1951C22.7401 27.9512 20.3671 30.5366 17.3019 31.561C16.3626 31.8537 15.4232 32 14.4839 32C14.1378 32 13.7423 32 13.3468 31.9512C8.10635 31.3171 3.16251 26.3902 1.03666 19.7561C-0.248739 15.6585 -0.347616 11.4146 0.789467 7.80488C1.97599 4.09756 4.29959 1.46341 7.36477 0.439024C8.3041 0.146341 9.24343 0 10.1828 0C10.5783 0 10.9738 0 11.3198 0.0487805C16.5603 0.731707 21.5042 5.60976 23.63 12.2439Z"
              fill="black"/>
        <path d="M9.97778 15.1096C10.9061 15.1096 11.6587 14.367 11.6587 13.451C11.6587 12.535 10.9061 11.7925 9.97778 11.7925C9.04944 11.7925 8.29688 12.535 8.29688 13.451C8.29688 14.367 9.04944 15.1096 9.97778 15.1096Z"
              fill="black"/>
        <path d="M18.0894 21.1098L12.75 7.5L21.1051 19.939L18.0894 21.1098Z" fill="black"/>
    </g>
</svg>