<?xml version="1.0" encoding="utf-8"?>
<svg xmlns="http://www.w3.org/2000/svg" viewBox="151.9944 0 1428.0056 500" width="1428.01px" height="500px">
  <path d="M1580 0L535.29 445.02C448.657 481.673 375.914 500 317.061 500C250.314 500 201.98 476.666 172.058 429.997C153.185 400.067 147.627 362.009 155.383 315.824C163.14 269.639 183.659 220.472 216.94 168.324C244.79 126.076 290.374 70.5208 353.692 1.65767C332.201 35.5061 316.442 72.6703 307.049 111.652C290.385 182.772 305.346 235 351.931 268.338C374.142 283.902 404.684 291.684 443.559 291.684C479.031 291.08 514.289 286.045 548.513 276.696L1580 0Z"/>
</svg>