<svg width="24" height="24" viewBox="0 0 24 24" fill="none" xmlns="http://www.w3.org/2000/svg">
    <path d="M19.5273 1.88794C19.9293 1.88794 20.2557 2.21354 20.2559 2.61548V16.3694C20.2557 16.5599 20.1804 16.7431 20.0469 16.8792L15.6992 21.3098C15.5624 21.4492 15.375 21.5275 15.1797 21.5276H1.68945C1.28741 21.5276 0.961055 21.2021 0.960938 20.8V7.15454C0.961003 6.96399 1.03553 6.78083 1.16895 6.64478L5.62402 2.10571C5.76092 1.96636 5.9482 1.88794 6.14355 1.88794H19.5273ZM6.40137 7.03247C6.20054 7.03264 6.03823 7.19589 6.03809 7.39673V16.0208C6.03809 16.2217 6.20045 16.3848 6.40137 16.385H14.8145C15.0155 16.385 15.1787 16.2218 15.1787 16.0208V7.39673C15.1786 7.19579 15.0154 7.03247 14.8145 7.03247H6.40137Z"
          fill="#000000"></path>
</svg>