<?xml version="1.0" encoding="utf-8"?>
<!-- Generator: Adobe Illustrator 16.0.0, SVG Export Plug-In . SVG Version: 6.00 Build 0)  -->
<!DOCTYPE svg PUBLIC "-//W3C//DTD SVG 1.1//EN" "http://www.w3.org/Graphics/SVG/1.1/DTD/svg11.dtd">
<svg version="1.1" id="Layer_1" xmlns="http://www.w3.org/2000/svg" xmlns:xlink="http://www.w3.org/1999/xlink" x="0px" y="0px"
	 width="300.34px" height="110.104px" viewBox="0 0 300.34 110.104" enable-background="new 0 0 300.34 110.104"
	 xml:space="preserve">
<path fill-rule="evenodd" clip-rule="evenodd" fill="#00584C" d="M288.633,51.057c0-3.318,2.69-5.764,5.867-5.764
	c3.151,0,5.84,2.445,5.84,5.764c0,3.345-2.688,5.794-5.84,5.794C291.323,56.851,288.633,54.402,288.633,51.057z M294.5,55.886
	c2.611,0,4.681-2.047,4.681-4.829c0-2.737-2.069-4.805-4.681-4.805c-2.639,0-4.702,2.068-4.702,4.805
	C289.798,53.838,291.861,55.886,294.5,55.886z M293.283,54.402h-1.015v-6.664h2.542c1.572,0,2.352,0.582,2.352,1.895
	c0,1.195-0.749,1.713-1.728,1.834l1.898,2.935h-1.134l-1.758-2.887h-1.158V54.402z M294.49,50.656c0.854,0,1.618-0.06,1.618-1.081
	c0-0.826-0.75-0.982-1.448-0.982h-1.377v2.063H294.49z"/>
<path fill-rule="evenodd" clip-rule="evenodd" fill="#00584C" d="M95.377,6.998c0.502-0.465-0.234-0.702-0.234-0.702
	c-4.737-2.057-9.33-1.885-9.33-1.885c-3.208-0.005-6.374,0.602-9.484,1.34c-0.551,0.13-1.111,0.245-1.654,0.403
	c-13.68,3.98-24.244,16.269-27.617,29.549c-1.741,6.662-1.892,13.817-0.113,20.488c0.247,0.922,0.53,1.835,0.853,2.732
	c0.155,0.43,0.317,0.855,0.489,1.277c0.123,0.306,0.468,0.804,0.468,1.137c0.001,1.234-5.186,0.626-5.945,0.435
	c-7.156-1.796-11.016-8.441-12.168-15.255c-1.629-13.37,5.854-27.568,17.381-34.764C68.4-0.956,94.023-3.794,115.036,5.381
	c5.772,2.489,12.651,7.9,15.061,13.518c0.292,0.715,0.521,1.457,0.687,2.211c0.421,1.92,0.419,3.914,0.105,5.849
	c-0.323,1.994-0.968,3.93-1.818,5.759c-0.863,1.854-1.939,3.607-3.172,5.236c-1.25,1.65-2.646,3.304-4.379,4.459
	c-0.789,0.527-1.555,1.091-2.345,1.618c-1.318,0.879-2.67,1.709-4.051,2.486c-2.761,1.552-5.642,2.895-8.616,3.982
	c-2.916,1.067-5.925,1.891-8.99,2.396c-2.966,0.489-5.987,0.679-8.988,0.481c0,0-3.295-0.255-6.01-0.956c0,0-1.25-0.147-0.854-1.151
	c0.036-0.095,0.096-0.177,0.162-0.251c0.188-0.21,0.454-0.166,0.708-0.231c0.347-0.089,0.694-0.174,1.04-0.266
	c0.709-0.189,1.414-0.393,2.109-0.626c1.331-0.444,2.635-0.967,3.9-1.572c2.485-1.186,4.83-2.667,6.965-4.405
	c2.152-1.749,4.092-3.76,5.752-5.98c1.693-2.262,3.094-4.74,4.148-7.361c0.757-1.885,1.294-3.738,1.514-5.764
	c0.311-2.857-0.021-5.78-1.066-8.463c-1.062-2.728-2.88-5.292-5.19-7.108c0,0-0.775-0.608-1.618-0.939
	c-0.525-0.206-1.037-0.168-1.856,0.555C83.889,25.399,78.857,42.801,73.32,62.16c-6,20.204-20.613,43.503-40.751,47.51
	c-11.152,1.626-24.153-1.142-29.933-11.393c-3.602-6.966-3.615-17.793,0.582-24.339c3.418-6.279,9.742-10.788,16.439-13.01
	c0.02-0.006,0.039-0.013,0.059-0.019c0.783-0.25,1.596-0.427,2.408-0.557c1.152-0.182,2.445-0.378,3.596-0.113
	c0.192,0.044,0.393,0.111,0.514,0.266c0.294,0.375-0.27,0.75-0.517,0.955c-0.369,0.308-0.765,0.583-1.12,0.907
	c-0.516,0.473-0.987,0.989-1.471,1.495c-0.953,1.005-1.842,2.08-2.58,3.255c-1.512,2.407-2.242,5.177-1.85,8.014
	c0.08,0.579,0.219,1.137,0.354,1.705c0.739,3.086,3.053,5.093,5.988,6.759c3.981,1.913,8.165,1.818,12.167-0.385
	c6.74-3.843,9.91-9.309,12.357-15.647c7.271-18.677,13.219-38.952,31.673-52.528c2.091-1.539,4.229-3.001,6.503-4.262
	c1.291-0.716,2.614-1.37,3.953-1.99C91.693,8.784,95.083,7.27,95.377,6.998"/>
<path fill-rule="evenodd" clip-rule="evenodd" fill="#00584C" d="M242.271,103.936c0.152-0.408-0.456-0.953-0.746-1.208
	c-0.294-0.257-0.625-0.471-0.913-0.737c-0.762-0.703-0.609-1.49-0.237-2.371c3.854-9.124,8.176-20.716,12.552-29.736
	c0.996-2.703,2.627-6.237,1.546-9.464c-1.198-1.953-3.142-4.014-5.411-4.441c-5.69-0.993-11.316,1.007-15.641,4.249
	c-0.345,0.257-1.281,0.743-1.55,0.163c-0.278-0.601-0.073-1.464-0.194-2.109c-0.082-0.439-0.242-0.863-0.524-1.214
	c-0.364-0.457-0.844-0.874-1.465-0.843c-0.558,0.028-1.061,0.371-1.567,0.574c-0.604,0.242-1.211,0.478-1.812,0.724
	c-2.684,1.102-5.316,2.318-7.874,3.688c-1.155,0.618-2.296,1.265-3.429,1.928c-0.583,0.341-1.158,0.699-1.745,1.035
	c-0.624,0.357-0.747,0.729-0.866,1.425c-0.045,0.261-0.061,0.537,0.012,0.795c0.117,0.417,0.446,0.676,0.822,0.854
	c0.564,0.267,1.225,0.358,1.731,0.735c0.926,0.688,0.398,1.787,0.058,2.653c-0.19,0.478-0.378,0.956-0.566,1.434
	c-0.57,1.446-1.143,2.892-1.713,4.338c-0.719,1.82-1.437,3.64-2.155,5.46c-0.755,1.91-1.507,3.82-2.261,5.729
	c-0.678,1.717-1.354,3.432-2.032,5.148c-0.488,1.238-0.977,2.476-1.465,3.714c-0.188,0.477-0.376,0.953-0.565,1.429
	c-0.959,1.88-2.622,3.575-4.633,4.249c-1.011,0.27-2.203-0.228-2.754-1.119c-0.499-0.808-0.289-1.916,0.053-2.742
	c0.03-0.074,13.706-33.028,13.706-33.028c0.331-0.66,0.661-1.321,0.992-1.982c0.515-1.027,0.995-2.083,1.539-3.093
	c0.599-1.108,0.571-2.539-0.378-3.468c-0.223-0.22-0.499-0.399-0.801-0.493c-0.589-0.184-1.089,0.193-1.599,0.438
	c-0.591,0.284-1.179,0.577-1.762,0.876c-1.167,0.6-2.318,1.228-3.463,1.871c-3.158,1.774-6.253,3.659-9.381,5.489
	c-1.591,0.932-3.192,1.848-4.81,2.735c-0.538,0.294-0.86,0.523-1.016,1.155c-0.118,0.479-0.143,1.064,0.051,1.528
	c0.513,1.234,2.674,1.846,2.088,3.438c-0.998,2.707-2.161,5.368-3.279,8.026c-1.38,3.276-2.806,6.531-4.286,9.762
	c-0.747,1.633-1.508,3.258-2.282,4.878c-0.395,0.825-0.791,1.647-1.192,2.469c-0.202,0.416-0.406,0.831-0.611,1.247
	c-0.314,0.64-0.506,1.128-1.216,1.405c-0.415,0.16-1.086,0.547-1.511,0.268c-0.357-0.236-0.433-1.081-0.545-1.468
	c-0.528-1.831-0.991-3.682-1.438-5.535c-0.57-2.369-1.103-4.748-1.592-7.135c-0.479-2.342-0.925-4.694-1.276-7.059
	c-0.188-1.257-0.341-2.519-0.423-3.787c-0.037-0.595-0.107-1.227-0.071-1.822c0.025-0.421,0.365-0.515,0.678-0.726
	c0.246-0.168,0.495-0.335,0.745-0.501c0.529-0.353,1.063-0.7,1.599-1.044c1.125-0.721,2.258-1.425,3.396-2.12
	c2.865-1.747,5.768-3.431,8.676-5.105c2.829-1.629,5.67-3.241,8.493-4.886c0.899-0.429,4.376-0.606,4.825-1.928
	c0.212-0.651,0.002-1.301-0.449-1.792c-0.493-0.535-1-0.551-1.687-0.609c-0.613-0.052-1.227-0.102-1.841-0.147
	c-1.229-0.09-2.457-0.167-3.688-0.226c-2.808-0.135-5.619-0.169-8.429-0.097c-1.286,0.034-2.572,0.088-3.856,0.153
	c-0.651,0.034-1.301,0.07-1.951,0.107c-1.129,0.066-1.995,0.247-2.868,0.996c-0.344,0.295-0.46,0.507-0.427,0.967
	c0.024,0.344,0.116,0.697,0.253,1.012c0.232,0.529,0.648,0.948,1.143,1.237c0.361,0.211,0.75,0.361,1.136,0.521
	c0.212,0.088,0.519,0.178,0.648,0.386c0.883,1.42,0.793,1.974-0.577,3.284c-1.947,1.573-3.949,3.081-5.984,4.537
	c-1.371,0.981-2.76,1.938-4.168,2.864c-1.248,0.817-2.5,1.724-3.848,2.37c-0.126,0.061-1.405,0.652-1.254,0.271
	c7.059-17.738,15.006-38.056,24.717-58.515c0.681-1.71,3.48-2.829,4.441-4.442c0.357-0.907-1.885-3.062-3.283-2.317
	c-16.604,7.1-12.982,5.691-20.857,9.27c-0.288,0.131-0.588,0.243-0.885,0.358c-1.36,0.538-2.77,0.987-4.08,1.647
	c-0.54,0.272-1.061,0.588-1.523,0.98c-0.43,0.364-1.095,0.946-1.217,1.514c-0.092,0.436,0.057,1.043,0.282,1.419
	c0.403,0.671,1.258,0.86,1.966,1.025c0.592,0.138,1.189,0.255,1.782,0.389c0.708,0.162,1.468,0.23,1.961,0.816
	c1.637,1.939-0.132,4.207-0.798,6.142c-3.99,9.112-24.457,60.257-24.524,60.257c-0.476,1.071-0.937,2.15-1.473,3.193
	c-0.62,1.207-1.347,2.365-2.265,3.369c-1.025,1.124-2.241,1.938-3.592,2.621c-0.057,0.029-0.113,0.057-0.162,0.095
	c-0.347,0.263-0.456,1.006-0.434,1.417c0.024,0.43,0.229,0.787,0.585,0.996c0.135,0.091,0.495,0.092,0.495,0.092l0.308-0.001h18.686
	c0,0,0.659,0.025,0.98-0.776c0.341-0.689-0.087-1.458-0.441-2.057c-0.23-0.389-0.488-0.761-0.734-1.14c0,0-0.284-0.456-0.442-0.754
	c-0.16-0.298-0.02-0.554-0.02-0.554c0.789-2.04,1.653-4.05,2.51-6.062c1.393-3.271,2.779-6.548,3.956-9.903l2.354,11.53l1.936,8.694
	c0.267,1.037,1.702,1.021,1.702,1.021h53.618c0,0,0.169,0.024,0.481-0.119c1.744-1.092-1.45-3.413-0.993-5.102
	c0.026-0.096,0.063-0.19,0.097-0.285c1.12-3.318,2.448-6.563,3.817-9.785c1.439-3.38,2.933-6.736,4.355-10.123
	c0.638-1.516,1.286-3.034,1.867-4.572c0.558-1.478,1.095-2.919,1.874-4.302c0.738-1.311,1.488-2.676,2.505-3.794
	c1.019-1.12,2.333-1.774,3.777-2.165c0.416-0.113,0.989-0.201,1.358,0.067c0.34,0.248,0.498,0.714,0.576,1.109
	c0.151,0.768,0.192,1.457-0.001,2.228c-0.229,0.904-0.638,1.765-0.973,2.633c-1.194,3.108-2.41,6.208-3.65,9.299
	c-1.218,3.033-2.459,6.056-3.718,9.072c-0.664,1.595-1.335,3.189-2.009,4.781c-0.354,0.837-0.709,1.673-1.063,2.509
	c-0.359,0.842-0.805,1.688-1.09,2.557c-0.148,0.45-0.395,0.859-0.696,1.223c-0.692,0.833-1.636,1.386-2.415,2.125
	c0,0-1.065,0.696-0.922,2.121c0.282,0.844,1.132,0.7,1.132,0.7l1.024-0.008h15.506C239.322,105.01,241.848,105.055,242.271,103.936"
	/>
<path fill-rule="evenodd" clip-rule="evenodd" fill="#00584C" d="M114.584,62.87c0.42-0.208,0.839-0.417,1.258-0.626
	c0.892-0.447,1.783-0.897,2.677-1.344c1.994-0.995,3.987-1.991,5.981-2.987c1.396-0.698,2.792-1.396,4.188-2.094
	c0,0,0.387-0.216,0.896-0.257c1.398-0.113,2.485,0.7,3.025,1.771c0.452,0.735-0.242,2.682,0.772,2.898
	c3.573-5.115,9.041-7.059,13.738-4.292c0,0,3.461,1.916,3.604,6.687c0.041,1.32-0.452,2.778-0.994,3.965
	c-0.526,1.149-1.233,2.215-2.102,3.136c-1.46,1.546-3.342,2.625-5.366,3.252c-1.625,0.623-4.11,0.058-5.408-0.775
	c-0.852-0.548-1.552-1.159-2.095-2.02c-0.23-0.366-0.437-0.748-0.659-1.118c-0.181-0.299-0.274-0.597-0.618-0.302
	c-0.688,0.593-1.024,1.304-1.356,2.125c-0.202,0.503-0.407,1.005-0.609,1.508c-0.586,1.448-1.17,2.896-1.756,4.344
	c-0.732,1.813-1.465,3.627-2.198,5.441c-0.772,1.911-1.545,3.822-2.317,5.733c-0.703,1.74-1.404,3.48-2.109,5.221
	c-0.395,0.978-0.789,1.954-1.185,2.932c-0.373,0.923-0.698,1.878-1.153,2.765c-0.286,0.554-0.45,1.024-0.242,1.64
	c0.193,0.575,0.6,1.074,1.046,1.476c1.012,1.104,0.91,2.915-2.124,2.897c-0.937,0-1.873,0-2.812,0c-2.085,0-4.171,0-6.257,0
	c-2.147,0-4.295,0-6.443,0c-0.885,0-1.77-0.001-2.655,0c-1.102-0.08-1.38-0.406-1.38-0.406c-0.38-0.31-0.546-0.675-0.539-1.337
	c0.087-2.061,2.471-1.263,3.67-3.665c0,0,12.535-28.355,12.552-28.393c0.394-0.892,0.685-2.168,0.337-3.115
	c-0.208-0.568-0.643-0.998-1.141-1.326c-0.612-0.404-1.271-0.503-1.518-1.295c0,0-0.102-0.962,0.003-1.404
	c0.105-0.442,0.523-0.651,0.523-0.651L114.584,62.87"/>
<path fill-rule="evenodd" clip-rule="evenodd" fill="#00584C" d="M96.688,55.204C83.395,56.92,71.616,69.657,68.494,80.122
	c-2.093,6.887-2.406,14.71,1.93,20.475c3.754,4.176,9.494,5.611,14.871,4.821c1.937-0.308,3.818-0.929,5.582-1.785
	c1.781-0.866,3.443-1.965,4.975-3.219c1.555-1.271,2.975-2.7,4.27-4.233c1.278-1.518,2.435-3.138,3.464-4.835
	c0.447-0.737,0.899-1.484,1.247-2.272c0.3-0.68,0.571-1.37,0.816-2.07c0.127-0.364,0.624-1.471-0.182-1.471
	c-0.31-0.003-0.616,0.216-0.861,0.383c-5.229,4.06-8.947,5.98-13.133,5.984c-1.992,0.002-3.86-0.476-5.5-1.643
	c-0.617-0.438-1.148-0.951-1.664-1.499c-0.748-0.796-1.092-1.688-1.365-2.729c-0.287-1.087-0.436-2.208-0.451-3.333
	c-0.031-2.208,0.452-4.391,1.197-6.461c0.762-2.121,1.788-4.136,2.888-6.099c0.536-0.957,1.091-1.904,1.647-2.851
	c0.437-0.745,1.459-2.082,1.459-2.082c0.543-0.712,1.159-1.397,1.766-2.058c0.559-0.61,1.159-1.193,1.853-1.652
	c0.692-0.458,1.466-0.77,2.286-0.9c0.878-0.14,2.112-0.235,2.854,0.341c1.443,1.118,1.666,3.117,1.474,4.816
	c-0.032,0.286-0.078,0.57-0.138,0.852c-1.538,6.023-3.869,9.168-9.267,12.938c0,0-1.935,0.973-4.157,1.816
	c0,0-0.682,0.297-0.291,0.691c0.392,0.394,0.852,0.431,0.852,0.431s0.597,0.062,1.288,0.069c0.937,0.01,1.876,0.018,2.811-0.044
	c1.817-0.12,3.625-0.424,5.372-0.945c1.715-0.511,3.367-1.231,4.896-2.162c1.568-0.956,3-2.129,4.252-3.473
	c0.951-1.022,1.822-2.143,2.55-3.336c1.975-3.241,3.183-7.178,1.47-10.793C109.553,61.793,105.857,54.021,96.688,55.204"/>
<path fill-rule="evenodd" clip-rule="evenodd" fill="#00584C" d="M259.971,96.098c0.715-0.401,1.367-0.916,1.902-1.538
	c0.519-0.601,0.921-1.294,1.207-2.033c0.153-0.399,0.274-0.811,0.367-1.229c0.091-0.406,0.216-0.915,0.203-1.333
	c-0.078-2.698-0.886-5.441-3.135-7.032c-1.347-0.959-2.936-1.488-4.475-1.488c-0.688,0-1.355,0.106-1.985,0.315
	c-4.32,1.345-7.152,5.096-7.219,9.558c0,4.525,1.816,8.493,5.259,11.478c3.513,2.517,8.104,3.903,12.93,3.903
	c3.163,0,6.273-0.61,9-1.769c3.241-1.655,10.771-6.369,10.674-14.369c0.676-6.03-3.703-11.11-7.567-15.591
	c-3.688-4.277-7.172-8.319-5.575-12.381c0.528-1.113,2.234-2.325,4.533-2.608c0,0,0.454-0.014,0.937,0.089
	c0.599,0.129,1.348,0.272,1.625,0.725c0.123,0.201,0.143,0.446,0.06,0.747c-0.244,0.396-0.478,0.751-0.684,1.065
	c-1.009,1.536-1.617,2.463-1.637,4.945c-0.283,2.724,1,5.152,3.519,6.662c0.874,0.555,2.041,0.848,3.376,0.848
	c1.184,0,2.482-0.241,3.48-0.647c2.288-1.09,3.229-3.729,3.92-5.669c0.599-2.744-0.108-6.114-1.756-8.387
	c-2.717-3.639-7.176-5.484-13.252-5.484c-0.491,0-1,0.012-1.517,0.036c-3.308,0.22-6.689,1.26-9.522,2.93
	c-3.157,1.86-5.369,4.342-6.397,7.174c-2.976,7.434,1.508,12.5,5.845,17.4c4.268,4.821,8.297,9.375,4.982,15.802
	c-1.525,2.125-3.508,3.053-6.091,2.853c-1.763-0.136-3.616-0.513-5.048-1.617c-0.325-0.25-0.624-0.536-0.888-0.852
	c-0.28-0.335-0.63-0.759-0.718-1.194c-0.03-0.142-0.033-0.361,0.1-0.459c0.217-0.159,0.537-0.026,0.772,0.008
	C257.196,96.957,258.146,97.23,259.971,96.098"/>
<path fill-rule="evenodd" clip-rule="evenodd" fill="#00584C" d="M211.315,37.471c1.104,0.068,2.192,0.315,3.205,0.766
	c1.556,0.691,2.823,1.893,3.43,3.503c0.585,1.555,0.54,3.279,0.245,4.892c-0.229,1.26-0.969,2.566-1.682,3.603
	c-0.577,0.84-1.27,1.604-2.076,2.229c-1.18,0.916-2.391,1.439-3.888,1.467c-0.91,0.018-1.823-0.042-2.721-0.199
	c-2.214-0.389-4.394-1.48-5.285-3.667c0,0-2.077-4.215,0.542-8.684c1.266-2.159,3.506-3.412,5.934-3.797
	C209.777,37.465,210.55,37.425,211.315,37.471"/>
</svg>
