<?xml version="1.0" encoding="utf-8"?>
<svg version="1.1" id="layer" xmlns="http://www.w3.org/2000/svg" xmlns:xlink="http://www.w3.org/1999/xlink" x="0px" y="0px"
	 viewBox="0 0 652 652" style="enable-background:new 0 0 652 652;" xml:space="preserve">
<style type="text/css">
	.st0{fill:#FFE700;}
	.st1{fill:#FFD00A;}
	.st2{fill:#FFAD02;}
	.st3{fill:#003349;}
</style>
<path class="st0" d="M364.7,230.8l-7.9-4.6l-23.7-13.7c-3.3-1.9-7.4-1.9-10.8,0l-23.7,13.7l-7.8,4.5l-23.7,13.7
	c-3.3,1.9-5.4,5.5-5.4,9.3v27.3v75.4h4.8h4.8h4.8h4.8h4.8h4.8v-86c0-3.8,2.1-7.4,5.4-9.3l26.1-15.1c3.3-1.9,7.4-1.9,10.8,0
	l26.2,15.1c3.3,1.9,5.4,5.5,5.4,9.3v85.9h4.8h4.8h4.8h4.8h4.8h4.8v-75.4v-27.3c0-3.8-2.1-7.4-5.4-9.3L364.7,230.8z"/>
<path class="st1" d="M422.8,197.2l-66-38.1l-23.7-13.7c-3.3-1.9-7.4-1.9-10.8,0l-23.7,13.7l-65.9,38.1L209,210.9
	c-3.3,1.9-5.4,5.5-5.4,9.3v27.3v108.9h4.8h4.8h4.8h4.8h4.8h4.8V237c0-3.8,2.1-7.4,5.4-9.3l84.2-48.6c3.3-1.9,7.4-1.9,10.8,0
	l84.3,48.7c3.3,1.9,5.4,5.5,5.4,9.3v119.5h4.8h4.8h4.8h4.8h4.8h4.8V247.6v-27.3c0-3.8-2.1-7.4-5.4-9.3L422.8,197.2z"/>
<path class="st2" d="M504.6,177.4l-171.5-99c-3.3-1.9-7.4-1.9-10.8,0l-171.4,99c-3.3,1.9-5.4,5.5-5.4,9.3v217.2
	c0,5.9,4.8,10.8,10.8,10.8h134.5v-29.1H174.6V203.4c0-3.8,2.1-7.4,5.4-9.3l142.4-82.2c3.3-1.9,7.4-1.9,10.8,0l142.4,82.2
	c3.3,1.9,5.4,5.5,5.4,9.3v182.1H364.7v29.1h134.5c5.9,0,10.8-4.8,10.8-10.8V186.7C510,182.8,507.9,179.3,504.6,177.4"/>
<path class="st3" d="M179.5,527c-0.3,15.7-11.6,34-42.2,34c-18.6,0-29.7-7.6-29.7-20.3c0-13.8,10.7-21,33.6-22.4l38.3-1.2L179.5,527
	L179.5,527z M148.7,452.1h-0.6c-17.2,0-31.7,5.1-40.7,14.2c-5.1,5.2-8.4,11.4-9.8,18.6c-0.2,0.8,0.5,1.6,1.3,1.6h16.6
	c3.5-12,14.9-18.7,32.4-18.7h0.6c19.4,0,31.1,6.9,31.1,18.4v15.4c0,0.4-0.3,0.7-0.7,0.7l-40,1.7c-32.5,1.7-48.3,13.7-48.3,36.7
	c0,26.7,23.8,36.2,46.1,36.2c17.2,0,29.7-4.7,40.7-15.2l2.4-2.7v15.6h16.6v-86C196.4,465.4,179,452.1,148.7,452.1 M269.9,452.1
	c-34.2,0-58.1,28.1-58.1,62.6c0,34.3,22.9,62.2,58.1,62.2c19.1,0,34.5-7.9,45.3-22.3c2.4-3.2,4.5-6.8,6.3-10.6
	c0.4-0.9-0.3-1.9-1.2-1.9H303c-3,4.9-6.5,8.2-8,9.5c-7.3,6.3-15.2,9.5-25.2,9.5c-22,0-40.8-20.6-40.8-46.3
	c0-25.9,18.7-46.7,40.8-46.7c10.6,0,19,3.6,26.6,10.9c1.1,1,3.7,3.7,6.2,7.5h17.3c1,0,1.7-1.1,1.2-1.9c-3-6.3-6.6-10.9-9.2-13.8
	C301.2,458.7,287,452.1,269.9,452.1 M422.1,527c-0.3,15.7-11.6,34-42.2,34c-18.6,0-29.7-7.6-29.7-20.3c0-13.8,10.7-21,33.6-22.4
	l38.3-1.2L422.1,527L422.1,527z M391.2,452.1h-0.6c-17.2,0-31.7,5.1-40.7,14.2c-5.1,5.2-8.4,11.4-9.8,18.5c-0.2,0.9,0.5,1.7,1.4,1.7
	H358c3.5-12,14.9-18.7,32.4-18.7h0.6c19.4,0,31.1,6.9,31.1,18.4v15.4c0,0.4-0.3,0.7-0.7,0.7l-40,1.7c-32.5,1.7-48.3,13.7-48.3,36.7
	c0,26.7,23.8,36.2,46.1,36.2c17.2,0,29.7-4.7,40.7-15.2l2.4-2.7v15.6h16.6v-86C438.9,465.4,421.5,452.1,391.2,452.1 M503.6,452.1
	c-31.8,0-46.3,18-46.3,34.7c0,7.6,1.8,13.4,5.5,17.8c8.4,10,20.2,12.4,41.8,13.8c21.3,1.4,32,8.4,32.6,21.4
	c0.2,5.1-1.4,9.7-4.8,13.2c-5,5.2-13.8,8-25.4,8l-1.1,0c-13.2-0.2-24.3-4.9-30.5-13.1c-1.4-1.9-2.4-3.7-3.3-5.8H456
	c-0.9,0-1.6,0.9-1.3,1.8c5.8,20.4,24.8,32.7,51.4,33.1l1.2,0c16.5,0,30.1-4.5,38.2-12.8c6.1-6.2,9.1-14.4,8.9-24.4
	c-0.4-22.3-15.7-34.3-46.5-36.9c-19.9-1.7-33.2-5.2-33.2-16.7c0-10.5,12.4-18.3,28.9-18.3c13.1,0,23,4.9,28,13.7
	c0.5,0.8,1.3,2.6,2.1,5.1h16.2c0.8,0,1.4-0.8,1.3-1.6c-0.4-1.8-0.8-3.5-1.3-5C544.1,462.3,527.3,452.1,503.6,452.1 M656.4,527
	c-0.3,15.7-11.6,34-42.2,34c-18.6,0-29.7-7.6-29.7-20.3c0-13.8,10.7-21,33.6-22.4l38.3-1.2L656.4,527z M625.6,452.1H625
	c-17.2,0-31.7,5.1-40.7,14.2c-5.1,5.2-8.4,11.4-9.8,18.6c-0.2,0.8,0.5,1.5,1.3,1.5h16.6c3.5-12,14.9-18.7,32.4-18.7h0.6
	c19.4,0,31.1,6.9,31.1,18.4v15.4c0,0.4-0.3,0.7-0.7,0.7l-40,1.7c-32.5,1.7-48.3,13.7-48.3,36.7c0,26.7,23.8,36.2,46.1,36.2
	c17.2,0,29.7-4.7,40.7-15.2l2.4-2.7v15.6h16.6v-86C673.3,465.4,655.9,452.1,625.6,452.1 M73.1,454.9L36.2,555.1L-1.4,454.9h-16.5
	c-0.9,0-1.6,0.9-1.3,1.8l45,117.8h20.4l44.6-117.8c0.3-0.9-0.3-1.8-1.3-1.8L73.1,454.9L73.1,454.9z"/>
</svg>
