<svg width="400" height="400" viewBox="0 0 400 400" fill="none" xmlns="http://www.w3.org/2000/svg">
    <path d="M349.449 112C347.163 113.464 344.747 115.742 342.195 118.844C338.723 123.046 335.212 128.019 331.65 133.767C328.092 139.521 324.945 145.403 322.204 151.427L255.395 296L203.921 177.713L145.602 296L80.1596 150.882C77.603 145.042 74.501 139.109 70.8494 133.082C67.1972 127.058 63.8205 122.225 60.7183 118.574C58.1624 115.471 55.4212 113.14 52.5036 111.59C49.5826 110.042 45.4752 108.533 40.186 107.072V104.335H140.67V107.072C136.653 108.713 133.78 110.589 132.044 112.685C130.309 114.786 129.443 117.572 129.443 121.034C129.443 123.957 130.268 127.333 131.909 131.166L174.623 229.192L202.55 173.06L186.396 135.273C181.648 124.323 177.176 116.747 172.979 112.545C171.517 111.089 169.831 109.948 167.915 109.128C165.999 108.303 163.303 107.617 159.836 107.072V104.335H258.956V107.072C249.101 108.713 244.17 114.01 244.17 122.952C244.17 125.142 244.669 128.154 245.674 131.991C246.676 135.823 248.005 139.75 249.647 143.762L283.872 225.084L290.715 211.117C297.655 196.702 302.992 183.376 306.735 171.143C310.473 158.915 312.349 148.14 312.349 138.835C312.349 128.249 310.062 120.124 305.504 114.466C303.858 112.459 302.033 110.953 300.026 109.948C298.016 108.948 295.004 107.986 290.99 107.072V104.335H359.716V107.072C355.152 108.897 351.73 110.543 349.449 112Z" fill="#201D1C"/>
</svg>
