<svg version="1.2" xmlns="http://www.w3.org/2000/svg" viewBox="13.3789 11 94.8211 69.5799" ><style></style><path fill-rule="evenodd" d="m60.8 76.1c-4.9 2.8-10.8 4.5-17 4.5-12.8 0-24-7-30.1-17.3 0-0.1 0-0.1 0-0.1 0-0.1-0.1-0.1-0.1-0.1l4.9-2.6 4.9-2.5q0.1 0.1 0.2 0.2c4.2 6.8 11.7 11.3 20.2 11.3 2.7 0 5.4-0.5 7.7-1.2-5.2-6-8.4-13.9-8.4-22.5 0-8.6 3.1-16.5 8.3-22.5-2.3-0.9-4.9-1.3-7.6-1.3-8.4 0-16.2 4.5-20.5 11.8q-0.1 0.1-0.1 0.1l-9.8-5.1q0.1-0.1 0.1-0.2c6-10.5 17.4-17.6 30.3-17.6 6.2 0 12.1 1.7 17 4.6 4.9-2.9 10.8-4.6 17-4.6 12.9 0 24.2 7.1 30.3 17.6q0 0.1 0.1 0.2l-9.9 5.1q0.1 0 0-0.1c-4.3-7.3-12.1-11.8-20.5-11.8-2.7 0-5.3 0.4-7.6 1.3 5.2 6 8.3 13.9 8.3 22.5 0 8.6-3.2 16.5-8.4 22.5 2.3 0.7 5 1.2 7.7 1.2 8.5 0 16-4.5 20.2-11.3q0.1-0.1 0.2-0.2l4.9 2.5 4.9 2.6c0 0-0.1 0-0.1 0.1 0 0 0 0 0 0.1-6.1 10.3-17.3 17.3-30.1 17.3-6.2 0-12.1-1.7-17-4.5zm0-13.8c-4.1-4.3-6.6-10.1-6.6-16.5 0-6.3 2.4-12.1 6.6-16.3 4.2 4.2 6.6 10 6.6 16.3 0 6.4-2.6 12.2-6.6 16.5z"/></svg>