<svg version="1.2" xmlns="http://www.w3.org/2000/svg" viewBox="7 6.11 82.7 63" width="82.7" height="63"><style></style><path
        d="m77 11.3c-5.4-2.4-11-4.2-16.9-5.2q0 0-0.1 0-0.1 0.1-0.1 0.1-1.2 2.1-2.1 4.3c-6.3-0.9-12.7-0.9-18.9 0q-1-2.2-2.1-4.3-0.1 0-0.2-0.1 0 0-0.1 0c-5.8 1-11.5 2.8-16.8 5.2q-0.1 0.1-0.2 0.1c-10.7 16-13.6 31.7-12.2 47.1q0 0.1 0.1 0.1 0 0.1 0 0.1c6.3 4.6 13.3 8.1 20.7 10.4q0.1 0 0.1 0 0.1 0 0.2-0.1 2.4-3.2 4.2-6.8 0-0.1 0-0.1 0-0.1 0-0.2 0 0-0.1 0 0-0.1-0.1-0.1-3.3-1.3-6.4-3.1-0.1 0-0.1-0.1 0 0 0-0.1 0-0.1 0-0.1 0-0.1 0.1-0.1 0.6-0.5 1.3-1 0-0.1 0.1-0.1 0.1 0 0.1 0c13.5 6.2 28.2 6.2 41.6 0q0 0 0.1 0 0.1 0 0.1 0.1 0.7 0.5 1.3 1 0.1 0 0.1 0.1 0 0 0 0.1 0 0.1 0 0.1 0 0.1-0.1 0.1-3.1 1.8-6.4 3.1-0.1 0-0.1 0-0.1 0.1-0.1 0.1 0 0.1 0 0.1 0 0.1 0 0.1 1.9 3.6 4.2 6.9 0.1 0.1 0.2 0.1 0.1 0 0.1 0c7.5-2.3 14.5-5.8 20.7-10.4q0-0.1 0.1-0.1 0-0.1 0-0.1c1.7-17.8-2.9-33.3-12.2-47.1q-0.1 0-0.1-0.1zm-42.4 37.8c-4.1 0-7.4-3.7-7.4-8.3 0-4.6 3.3-8.4 7.4-8.4 4.2 0 7.5 3.8 7.5 8.4-0.1 4.5-3.3 8.3-7.5 8.3zm27.5 0c-4.1 0-7.4-3.7-7.4-8.3 0-4.6 3.3-8.4 7.4-8.4 4.1 0 7.5 3.8 7.4 8.4 0 4.5-3.2 8.3-7.4 8.3z"/></svg>